# xmcd CD database file
#
# Track frame offsets:
#	150
#	13160
#	25980
#	39197
#	52697
#	65920
#	77400
#	91017
#	104040
#	118290
#	131147
#	144205
#	156480
#	171737
#	185722
#	200185
#	212277
#	224195
#	235627
#	248277
#
# Disc length: 3500 seconds
#
# Revision: 0
# Processed by: cddbd v1.5.2PL0 Copyright (c) Steve Scherf et al.
# Submitted via: CDex 1.50beta10
#
DISCID=240daa14
DTITLE=Various Artist - Musidisc Blues
DYEAR=1940
DGENRE=Blues
TTITLE0=Arthur Big Boy Crudup - That's All Right
TTITLE1=Big Joe Williams - Please don't go
TTITLE2=Dinah Washington - Rich Mans Blues
TTITLE3=Roy Milton - RM Blues
TTITLE4=T-Bone Walker - I'm gonna find my Baby
TTITLE5=Muddy Waters ? Burying Ground Blues
TTITLE6=Lightnin' Hopkins - Katie Mae
TTITLE7=Sonny Terry - Shake Down Blues
TTITLE8=Leadbelly - Roberta
TTITLE9=Louis Armstrong - 2-19 Blues
TTITLE10=Big Maceo - worried Life Blues
TTITLE11=Eddie Vinson - When my Baby left me
TTITLE12=Memphis Slim - Beer drinking Woman
TTITLE13=Louis Jordan - Mama Mama Blues
TTITLE14=Billie Holiday - Fine and Mellow
TTITLE15=Joe Turner - Goin away Blues
TTITLE16=Peetie Wheatstraw - Shack Bully Stomp
TTITLE17=Rosetta Tharpe - Trouble in Mind
TTITLE18=Big Big Broonzy - I feel so good
TTITLE19=Bessie Smith - St- Louis Blues
EXTD=YEAR: 1940
EXTT0=
EXTT1=
EXTT2=
EXTT3=
EXTT4=
EXTT5=
EXTT6=
EXTT7=
EXTT8=
EXTT9=
EXTT10=
EXTT11=
EXTT12=
EXTT13=
EXTT14=
EXTT15=
EXTT16=
EXTT17=
EXTT18=
EXTT19=
PLAYORDER=
